<svg width="476" height="320" viewBox="0 0 476 320" xmlns="http://www.w3.org/2000/svg"><g fill="none" fill-rule="evenodd"><path fill="none" d="M-83 336h626V-16H-83z"/><path d="M304.965 44.911c.839.28 95.099 54.368 125.06 71.566 4.01 2.303 4.013 8.084.007 10.396l-65.113 37.594c-4 2.31-4 8.083 0 10.392l24.255 14.004M23.201 112.048L63.7 135.546c4.01 2.326 3.98 8.127-.055 10.411l-32.599 18.456c-4.035 2.284-4.065 8.087-.053 10.412l48.321 28.01c3.992 2.312 3.988 8.076-.008 10.384l-24.25 14.014" stroke="#E5E6E8" stroke-width="2"/><path d="M59.055 227.233a4 4 0 1 0-8-.001 4 4 0 0 0 8 0" fill="#FFF"/><path d="M59.055 227.233a4 4 0 1 0-8-.001 4 4 0 0 0 8 0zM355.106 15.8l74.007 42.727c4.03 2.326 3.992 8.154-.067 10.43l-32.22 18.061c-4.06 2.275-4.097 8.103-.068 10.43l8.231 4.752" stroke="#E5E6E8" stroke-width="2"/><path d="M388.103 227.534l-83.632-48.285-143.648 82.935a11.998 11.998 0 0 1-12 0L30.8 194.044c-4-2.308-4-8.082 0-10.391l31.883-18.408c4-2.31 4.001-8.083 0-10.392l-57.017-32.92" stroke="#FF6F00" stroke-width="2"/><path d="M55.055 35.248l40.884 23.604c4 2.31 4 8.083 0 10.393L62.835 88.356c-4.01 2.316-3.997 8.108.023 10.406l232.545 132.904c4.02 2.298 4.033 8.09.022 10.406l-90.722 52.376" stroke="#425066" stroke-width="2"/><path d="M300.965 44.911a4 4 0 1 1 8 0 4 4 0 0 1-8 0" fill="#FFF"/><path d="M300.965 44.911a4 4 0 1 1 8 0 4 4 0 0 1-8 0z" stroke="#E5E6E8" stroke-width="2"/><path d="M351.106 15.8a4 4 0 1 1 8 0 4 4 0 0 1-8 0" fill="#FFF"/><path d="M351.106 15.8a4 4 0 1 1 8 0 4 4 0 0 1-8 0z" stroke="#E5E6E8" stroke-width="2"/><path d="M200.703 294.448a4 4 0 1 1 8 0 4 4 0 0 1-8 0" fill="#FFF"/><path d="M200.703 294.448a4 4 0 1 1 8 0 4 4 0 0 1-8 0z" stroke="#425066" stroke-width="2"/><path d="M51.055 35.248a4 4 0 1 1 8 0 4 4 0 0 1-8 0" fill="#425066"/><path d="M51.055 35.248a4 4 0 1 1 8 0 4 4 0 0 1-8 0z" stroke="#425066" stroke-width="2"/><path d="M470.749 179.249l-77.904-44.186a12.002 12.002 0 0 0-11.921.046l-59.825 34.54" stroke="#FF6F00" stroke-width="2"/><path d="M466.749 179.249a4 4 0 1 1 8 0 4 4 0 0 1-8 0" fill="#FFF"/><path d="M466.749 179.249a4 4 0 1 1 8 0 4 4 0 0 1-8 0z" stroke="#FF6F00" stroke-width="2"/><path d="M317.099 169.649a4 4 0 1 1 8 0 4 4 0 0 1-8 0" fill="#FF6F00"/><path d="M317.099 169.649a4 4 0 1 1 8 0 4 4 0 0 1-8 0z" stroke="#FF6F00" stroke-width="2"/><path d="M27.201 112.048a4 4 0 1 0-8 0 4 4 0 0 0 8 0" fill="#FFF"/><path d="M27.201 112.048a4 4 0 1 0-8 0 4 4 0 0 0 8 0z" stroke="#E5E6E8" stroke-width="2"/><path d="M9.665 121.934a4 4 0 1 0-8 0 4 4 0 0 0 8 0" fill="#FFF"/><path d="M9.665 121.934a4 4 0 1 0-8 0 4 4 0 0 0 8 0z" stroke="#FF6F00" stroke-width="2"/><path d="M393.174 188.863a4 4 0 1 0-8-.001 4 4 0 0 0 8 0" fill="#E5E6E8"/><path d="M393.174 188.863a4 4 0 1 0-8-.001 4 4 0 0 0 8 0z" stroke="#E5E6E8" stroke-width="2"/><path d="M392.103 227.534a4 4 0 1 0-8 0 4 4 0 0 0 8 0" fill="#FF6F00"/><path d="M392.103 227.534a4 4 0 1 0-8 0 4 4 0 0 0 8 0z" stroke="#FF6F00" stroke-width="2"/><path fill-opacity=".05" fill="#425066" d="M119.205 202l203.69 117.6 8.313-4.8-203.69-117.6z"/><path fill="#FFF" d="M119.205 5.2l8.313 24 195.376 93.6 8.314-4.8L127.518.4z"/><path fill="#425066" d="M331.208 290.8V118l-8.313 4.8-8.315 14.4 8.315 158.4z"/><path fill="#CED0D1" d="M135.833 168.4v-144L119.205 5.2l8.314 168 5.935 6.693z"/><path fill="#CED0D1" d="M127.519 173.2l195.376 122.4v-19.2l-187.062-108z"/><path d="M127.519 29.2l187.062 108v144l-187.062-108v-144zm-8.313-24V178L314.58 290.8l8.314 4.8V122.8l-8.314-4.8L127.519 10l-8.313-4.8z" fill="#CED0D1"/><g><path d="M311.463 125.8c0-1.988 1.396-2.794 3.117-1.8 1.723.994 3.118 3.412 3.118 5.4 0 1.988-1.395 2.794-3.118 1.8-1.721-.994-3.117-3.412-3.117-5.4M301.07 119.8c0-1.988 1.396-2.794 3.118-1.8s3.117 3.412 3.117 5.4c0 1.988-1.395 2.794-3.117 1.8s-3.118-3.412-3.118-5.4M290.679 113.8c0-1.988 1.396-2.794 3.117-1.8 1.722.994 3.118 3.412 3.118 5.4 0 1.988-1.396 2.794-3.118 1.8-1.721-.994-3.117-3.412-3.117-5.4" fill="#CED0D1"/><path fill="#FFF" d="M314.47 281.2V137.286L127.519 29.35v143.914z"/><path d="M139.982 82.118l4.154 2.398V79.72l-4.154-2.399v4.797zm0-11.993l4.154 2.4v-4.798l-4.154-2.399v4.797zm8.31 16.79l27.003 15.591V97.71l-27.004-15.59v4.796zm0-11.993l17.655 10.195V80.32l-17.656-10.194v4.797zm19.733 11.394l33.235 19.188v-4.797l-33.235-19.189v4.798zm35.312 20.387l40.506 23.387v-4.797l-40.506-23.386v4.796zm69.587 52.17l24.927 14.391v-4.797l-24.927-14.39v4.795zm0-11.993l29.081 16.79v-4.797l-29.08-16.79v4.797zm-45.699-19.189l-8.308-4.797v4.797l8.308 4.797v-4.797zm-10.386-5.996l-39.467-22.787v4.797l39.467 22.787v-4.797zm-81.01-68.36l170.332 98.342v29.982L135.828 83.317V53.335zm178.64 83.95v9.595L127.52 38.944V29.35l186.95 107.936z" fill="#E5E6E8"/><path d="M302.006 187.656l-29.081-16.79v-4.797l29.08 16.79v4.797zm0 23.985l-29.081-16.79v-4.797l29.08 16.79v4.797zm-4.154 9.595l-24.927-14.392v-4.797l24.927 14.392v4.797zm-54.008-55.167l-35.313-20.39v-4.795l35.313 20.387v4.798zm-16.618 2.398l-66.471-38.377v-4.797l66.47 38.377v4.797zm-14.54 3.598l-10.387-5.996v-4.798l10.387 5.997v4.797zm-12.464-7.196l-39.467-22.786v-4.798l39.467 22.787v4.797zm-27.004-44.373v4.797l-12.463-7.196V113.3l12.463 7.196zm-17.656-22.187l39.467 22.786v4.797l-39.467-22.786v-4.797zm-11.425-1.8l-4.154-2.398v-4.797l4.154 2.399v4.797zm0 11.994l-4.154-2.4v-4.796l4.154 2.399v4.797zm0 11.992l-4.154-2.398V113.3l4.154 2.398v4.797zm0 11.994l-4.154-2.4v-4.796l4.154 2.398v4.798zm62.317 7.195v4.797l-31.16-17.99v-4.796l31.16 17.989zm-9.347-17.39l30.119 17.39v4.797l-30.12-17.39v-4.796zm75.818 55.767l24.927 14.392v4.797l-24.927-14.391v-4.798zM135.828 83.318v47.97l170.333 98.343v-47.972L135.828 83.318z" fill="#E5E6E8"/><path d="M242.806 213.44l-25.966-14.991v-4.797l25.966 14.99v4.798zm-28.043-16.19l-34.274-19.79v-4.796l34.274 19.789v4.797zm0 11.992l-54.008-31.181v-4.797l54.008 31.18v4.798zm-36.352-37.777v4.797l-17.656-10.194v-4.797l17.656 10.194zm-30.12-29.382l51.93 29.982v4.797l-51.93-29.983v-4.796zm-4.154 2.398l-4.154-2.398v-4.798l4.154 2.399v4.797zm0 11.993l-4.154-2.4v-4.796l4.154 2.399v4.797zm0 11.992l-4.154-2.398v-4.797l4.154 2.398v4.797zm0 9.595l-4.154-2.4v-4.796l4.154 2.399v4.797zm-8.31-46.772v46.772l170.334 98.34V229.63l-170.333-98.341z" fill="#E5E6E8"/><path d="M203.741 82.078c0-5.523 4.477-10 10-10 5.522 0 10 4.477 10 10s-4.478 10-10 10c-5.523 0-10-4.477-10-10" fill="#FF6F00"/><path d="M211.652 35.836a47.23 47.23 0 0 0-5.37-2.677" stroke="#FF6F00" stroke-width="2"/><path d="M198.951 30.947c-12.525-2.248-22.162 4.337-25.234 17.636" stroke="#FF6F00" stroke-width="2" stroke-dasharray="11.498,7.665"/><path d="M173.048 52.347a47.114 47.114 0 0 0-.367 5.989M250.623 103.335a57.47 57.47 0 0 0-.321-5.988" stroke="#FF6F00" stroke-width="2"/><path d="M248.963 89.344c-4.062-17.872-15.194-36.283-29.074-47.745" stroke="#FF6F00" stroke-width="2" stroke-dasharray="12.178,8.118"/><path d="M216.678 39.108a57.83 57.83 0 0 0-5.025-3.272M211.652 125.835a47.207 47.207 0 0 0 5.37 2.677" stroke="#FF6F00" stroke-width="2"/><path d="M224.353 130.724c12.525 2.25 22.16-4.337 25.234-17.635" stroke="#FF6F00" stroke-width="2" stroke-dasharray="11.498,7.665"/><path d="M250.256 109.325c.242-1.887.367-3.885.367-5.99M172.68 58.335c0 1.966.11 3.966.322 5.988" stroke="#FF6F00" stroke-width="2"/><path d="M174.34 72.328c4.062 17.872 15.195 36.283 29.074 47.745" stroke="#FF6F00" stroke-width="2" stroke-dasharray="12.178,8.118"/><path d="M206.626 122.564a57.694 57.694 0 0 0 5.026 3.272" stroke="#FF6F00" stroke-width="2"/><path d="M130.63 21.39c0-1.986-1.395-4.402-3.116-5.395-1.721-.994-3.115-.19-3.115 1.798 0 1.987 1.394 4.404 3.115 5.397 1.72.993 3.116.188 3.116-1.8M141.016 27.387c0-1.987-1.395-4.403-3.115-5.397-1.721-.993-3.116-.188-3.116 1.8 0 1.986 1.395 4.402 3.116 5.396 1.72.993 3.115.188 3.115-1.799M151.402 33.384c0-1.987-1.396-4.403-3.116-5.397-1.72-.994-3.115-.188-3.115 1.799 0 1.987 1.394 4.403 3.115 5.397 1.72.993 3.116.188 3.116-1.8" fill="#E5E6E8"/></g></g></svg>